HIERARCHY
ROOT Hips
{
	OFFSET 0.000000 0.000000 0.000000
	CHANNELS 6 Xposition Yposition Zposition Zrotation Yrotation Xrotation
	JOINT Spine1
	{
		OFFSET 0.000000 -0.000001 5.553894
		CHANNELS 6 Xposition Yposition Zposition Zrotation Yrotation Xrotation
		JOINT Neck
		{
			OFFSET 0.000000 -0.000001 4.427760
			CHANNELS 6 Xposition Yposition Zposition Zrotation Yrotation Xrotation
			JOINT Head
			{
				OFFSET 0.000000 -0.363272 2.815360
				CHANNELS 6 Xposition Yposition Zposition Zrotation Yrotation Xrotation
				End Site
				{
					OFFSET 0.000000 -0.000001 3.632711
				}
			}
		}
		JOINT LeftShoulder
		{
			OFFSET 0.731534 0.096024 3.575179
			CHANNELS 6 Xposition Yposition Zposition Zrotation Yrotation Xrotation
			JOINT LeftArm
			{
				OFFSET 2.610320 0.000000 0.000000
				CHANNELS 6 Xposition Yposition Zposition Zrotation Yrotation Xrotation
				JOINT LeftForeArm
				{
					OFFSET 5.118420 0.000000 0.000000
					CHANNELS 6 Xposition Yposition Zposition Zrotation Yrotation Xrotation
					JOINT LeftHand
					{
						OFFSET 4.756899 0.000000 0.000000
						CHANNELS 6 Xposition Yposition Zposition Zrotation Yrotation Xrotation
						End Site
						{
							OFFSET 2.724534 0.000000 0.000000
						}
					}
				}
			}
		}
		JOINT RightShoulder
		{
			OFFSET -0.721442 0.096024 3.575179
			CHANNELS 6 Xposition Yposition Zposition Zrotation Yrotation Xrotation
			JOINT RightArm
			{
				OFFSET -2.610320 0.000000 0.000000
				CHANNELS 6 Xposition Yposition Zposition Zrotation Yrotation Xrotation
				JOINT RightForeArm
				{
					OFFSET -5.118420 0.000000 0.000000
					CHANNELS 6 Xposition Yposition Zposition Zrotation Yrotation Xrotation
					JOINT RightHand
					{
						OFFSET -4.756900 0.000000 0.000000
						CHANNELS 6 Xposition Yposition Zposition Zrotation Yrotation Xrotation
						End Site
						{
							OFFSET -2.724534 0.000000 0.000000
						}
					}
				}
			}
		}
	}
	JOINT LeftUpLeg
	{
		OFFSET 1.816360 0.000000 0.000000
		CHANNELS 6 Xposition Yposition Zposition Zrotation Yrotation Xrotation
		JOINT LeftLeg
		{
			OFFSET 0.000000 0.000001 -7.638980
			CHANNELS 6 Xposition Yposition Zposition Zrotation Yrotation Xrotation
			JOINT LeftFoot
			{
				OFFSET 0.000000 0.000001 -8.008600
				CHANNELS 6 Xposition Yposition Zposition Zrotation Yrotation Xrotation
				JOINT LeftToeBase
				{
					OFFSET 0.000000 -2.724540 -1.180634
					CHANNELS 6 Xposition Yposition Zposition Zrotation Yrotation Xrotation
					End Site
					{
						OFFSET 0.000000 -0.726542 0.000000
					}
				}
			}
		}
	}
	JOINT RightUpLeg
	{
		OFFSET -1.816360 0.000000 0.000000
		CHANNELS 6 Xposition Yposition Zposition Zrotation Yrotation Xrotation
		JOINT RightLeg
		{
			OFFSET 0.000000 0.000001 -7.638980
			CHANNELS 6 Xposition Yposition Zposition Zrotation Yrotation Xrotation
			JOINT RightFoot
			{
				OFFSET 0.000000 0.000001 -8.008600
				CHANNELS 6 Xposition Yposition Zposition Zrotation Yrotation Xrotation
				JOINT RightToeBase
				{
					OFFSET 0.000000 -2.724540 -1.180634
					CHANNELS 6 Xposition Yposition Zposition Zrotation Yrotation Xrotation
					End Site
					{
						OFFSET 0.000000 -0.726542 0.000000
					}
				}
			}
		}
	}
}
MOTION
Frames: 6
Frame Time: 0.041667
-0.685280 -0.369185 15.019623 -1.973132 -2.386595 18.255912 0.000000 -0.000001 5.553896 0.637656 -10.409505 -20.325482 -0.000000 -0.000000 4.427759 -3.966744 -2.979615 11.041071 0.000000 -0.363272 2.815357 -1.010620 14.751865 3.141141 0.731534 0.096025 3.575181 2.984297 -17.515605 -5.583304 2.610320 0.000000 0.000001 -10.813313 8.207861 -11.881117 5.118420 -0.000000 0.000001 0.995460 2.585795 -6.615461 4.756899 0.000001 0.000001 16.775192 -3.738432 -7.189321 -0.721442 0.096025 3.575178 -4.520615 13.866781 -0.883116 -2.610320 -0.000000 0.000004 16.858575 -21.113534 19.716787 -5.118420 0.000000 0.000004 100.706905 28.995485 43.527836 -4.756903 0.000002 0.000003 0.407470 32.991904 8.983614 1.816360 0.000000 0.000000 26.044618 -11.053854 -37.914045 0.000000 0.000002 -7.638979 17.763843 2.736788 32.343179 -0.000000 0.000001 -8.008598 18.741897 7.061318 4.126545 0.000000 -2.724539 -1.180635 -0.000001 -0.000002 -0.000001 -1.816360 0.000000 -0.000000 -4.559329 31.500901 -32.081723 -0.000001 0.000002 -7.638983 -26.625039 -11.895861 30.448423 0.000001 0.000001 -8.008599 -26.095170 -12.654440 -2.968883 0.000000 -2.724540 -1.180634 0.000003 -0.000001 0.000000 
-0.686666 -0.368706 15.020225 -1.972468 -2.419273 18.282314 0.000000 -0.000001 5.553893 0.659440 -10.413136 -20.329409 -0.000001 -0.000000 4.427762 -3.835020 -2.889049 11.022204 -0.000000 -0.363271 2.815353 -0.891316 14.714975 3.243181 0.731533 0.096024 3.575181 2.978037 -17.493790 -5.647794 2.610321 -0.000000 -0.000001 -10.788011 8.191735 -11.880632 5.118419 0.000000 0.000000 0.998292 2.576362 -6.613929 4.756899 -0.000000 -0.000001 16.829064 -3.729079 -7.188163 -0.721442 0.096024 3.575181 -4.487159 13.864236 -0.944575 -2.610321 -0.000000 -0.000004 16.843467 -21.100590 19.687134 -5.118419 -0.000000 -0.000000 100.745359 28.932955 43.487859 -4.756903 0.000002 0.000002 0.391795 32.988554 8.990054 1.816360 0.000000 -0.000003 25.952248 -11.055570 -37.906983 -0.000001 0.000001 -7.638978 17.823336 2.719005 32.320844 0.000000 0.000001 -8.008600 18.765400 7.078917 4.154440 0.000000 -2.724539 -1.180633 -0.000004 -0.000000 -0.000002 -1.816360 0.000001 -0.000000 -4.572521 31.532842 -32.097449 0.000000 0.000001 -7.638980 -26.675811 -11.883710 30.431918 0.000001 0.000002 -8.008599 -26.059723 -12.638847 -2.983435 0.000000 -2.724540 -1.180634 0.000006 -0.000001 -0.000000 
-0.686960 -0.370022 15.020736 -1.972860 -2.472574 18.281199 0.000000 -0.000000 5.553893 0.686563 -10.381788 -20.325982 0.000000 -0.000001 4.427761 -3.680085 -2.709619 11.078007 0.000001 -0.363272 2.815360 -0.795544 14.568350 3.254202 0.731534 0.096024 3.575182 2.961428 -17.509982 -5.686233 2.610320 -0.000000 0.000003 -10.789306 8.210942 -11.872893 5.118420 -0.000001 0.000000 1.007019 2.519418 -6.590012 4.756898 0.000000 0.000001 16.905657 -3.585137 -7.145088 -0.721442 0.096024 3.575178 -4.477362 13.898028 -0.963254 -2.610321 -0.000000 -0.000001 16.846187 -21.132703 19.626829 -5.118420 -0.000001 -0.000001 100.751431 28.865885 43.421913 -4.756902 0.000001 -0.000000 0.381533 33.016141 8.996396 1.816360 0.000000 -0.000001 25.862839 -11.038628 -37.848834 -0.000000 0.000002 -7.638980 17.852731 2.717149 32.278934 0.000000 0.000002 -8.008599 18.814072 7.054385 4.190218 -0.000000 -2.724540 -1.180635 -0.000001 0.000000 -0.000001 -1.816360 0.000000 -0.000001 -4.590210 31.590451 -32.086822 -0.000001 0.000002 -7.638979 -26.693107 -11.895894 30.424326 0.000000 0.000001 -8.008601 -26.053810 -12.640469 -3.003091 -0.000000 -2.724539 -1.180633 0.000004 0.000000 -0.000002 
-0.688733 -0.369333 15.021406 -1.949666 -2.494564 18.294923 0.000000 -0.000000 5.553896 0.713799 -10.377545 -20.316094 0.000000 -0.000000 4.427760 -3.540759 -2.500037 11.209050 -0.000001 -0.363272 2.815363 -0.738127 14.439423 3.100877 0.731534 0.096024 3.575181 2.893012 -17.455464 -5.725822 2.610320 0.000000 -0.000000 -10.804034 8.124755 -11.879731 5.118421 -0.000000 -0.000003 1.041748 2.497240 -6.598708 4.756902 -0.000001 0.000003 16.923406 -3.563342 -7.151665 -0.721442 0.096025 3.575181 -4.467639 13.947201 -0.985466 -2.610320 -0.000000 -0.000003 16.808780 -21.186135 19.567843 -5.118421 -0.000001 0.000001 100.723242 28.828248 43.401262 -4.756902 0.000003 0.000004 0.483661 33.021738 9.066378 1.816360 0.000000 -0.000000 25.786908 -11.044076 -37.850088 -0.000000 0.000002 -7.638978 17.869149 2.713344 32.265356 -0.000000 0.000001 -8.008598 18.847142 7.092565 4.215905 0.000000 -2.724539 -1.180633 -0.000001 0.000001 -0.000002 -1.816360 0.000000 -0.000000 -4.595802 31.610720 -32.079346 -0.000000 0.000001 -7.638978 -26.730943 -11.895075 30.413193 0.000001 0.000001 -8.008600 -26.052411 -12.683152 -3.013294 0.000000 -2.724540 -1.180634 0.000005 0.000000 0.000000 
-0.690357 -0.369239 15.022151 -1.924638 -2.515154 18.307328 -0.000000 -0.000000 5.553892 0.734888 -10.316873 -20.312935 0.000001 -0.000001 4.427761 -3.368312 -2.333588 11.294078 0.000001 -0.363271 2.815365 -0.625295 14.329891 3.030135 0.731535 0.096024 3.575181 2.925285 -17.436401 -5.780661 2.610318 -0.000000 0.000000 -10.914211 7.994437 -11.942387 5.118420 -0.000000 -0.000004 1.079334 2.496260 -6.567645 4.756899 0.000000 -0.000002 16.931576 -3.572409 -7.123022 -0.721442 0.096024 3.575179 -4.460881 13.955901 -0.980692 -2.610321 -0.000000 0.000000 16.789805 -21.258329 19.554495 -5.118420 -0.000002 -0.000001 100.707588 28.827172 43.367634 -4.756902 0.000002 -0.000001 0.449813 33.025146 9.033020 1.816360 0.000001 -0.000001 25.738999 -11.028617 -37.846710 -0.000000 0.000002 -7.638980 17.857181 2.707474 32.236232 -0.000000 0.000002 -8.008600 18.872438 7.094488 4.249881 -0.000000 -2.724540 -1.180633 -0.000000 0.000000 -0.000001 -1.816360 0.000001 -0.000002 -4.601305 31.631549 -32.069797 0.000000 0.000001 -7.638980 -26.754565 -11.901934 30.399270 0.000000 0.000002 -8.008601 -26.055010 -12.654711 -3.034355 -0.000000 -2.724540 -1.180634 0.000002 0.000000 -0.000000 
-0.692036 -0.369560 15.022922 -1.894258 -2.520898 18.313619 0.000000 -0.000001 5.553892 0.776299 -10.239186 -20.303422 0.000000 -0.000001 4.427762 -3.186889 -2.143240 11.369979 0.000000 -0.363273 2.815359 -0.515515 14.176548 2.966258 0.731534 0.096024 3.575180 2.964179 -17.410478 -5.826905 2.610319 0.000000 -0.000002 -11.070357 7.819552 -12.033496 5.118422 -0.000000 0.000000 1.111952 2.481724 -6.491197 4.756899 0.000001 -0.000001 16.930659 -3.533996 -7.041403 -0.721442 0.096024 3.575177 -4.467336 13.970308 -0.994831 -2.610320 -0.000000 0.000004 16.734390 -21.377229 19.579806 -5.118420 0.000000 0.000003 100.686264 28.845661 43.370847 -4.756903 0.000000 0.000001 0.431898 33.054458 9.021606 1.816360 0.000000 -0.000000 25.676594 -11.046107 -37.840262 0.000000 0.000001 -7.638980 17.844641 2.721755 32.209792 0.000000 0.000001 -8.008600 18.917216 7.098095 4.268368 0.000001 -2.724540 -1.180633 -0.000005 0.000000 -0.000002 -1.816360 0.000000 -0.000001 -4.599179 31.634602 -32.049078 -0.000000 0.000001 -7.638978 -26.817107 -11.891922 30.390534 0.000001 0.000001 -8.008601 -26.043134 -12.649156 -3.041120 -0.000001 -2.724540 -1.180633 0.000002 0.000002 -0.000000 
